<svg xmlns="http://www.w3.org/2000/svg" viewBox="0 0 128 128" role="img" aria-label="Cartoon forklift">
  <rect width="128" height="128" rx="20" fill="#FFF1F2"/>
  <ellipse cx="64" cy="108" rx="48" ry="8" fill="#FECDD3" opacity="0.5"/>
  <!-- Mast -->
  <rect x="78" y="28" width="8" height="52" rx="2" fill="#6B7280"/>
  <rect x="86" y="36" width="6" height="44" rx="2" fill="#9CA3AF"/>
  <!-- Forks -->
  <rect x="92" y="72" width="28" height="5" rx="2" fill="#DC2626"/>
  <rect x="92" y="82" width="28" height="5" rx="2" fill="#DC2626"/>
  <!-- Body -->
  <rect x="18" y="58" width="62" height="34" rx="8" fill="#EF4444"/>
  <rect x="22" y="62" width="54" height="18" rx="4" fill="#F87171"/>
  <!-- Cab -->
  <rect x="28" y="32" width="38" height="30" rx="6" fill="#EF4444"/>
  <rect x="32" y="36" width="22" height="16" rx="3" fill="#BFDBFE"/>
  <circle cx="46" cy="44" r="2" fill="#1E3A5F" opacity="0.3"/>
  <!-- Smile -->
  <path d="M38 50 Q42 54 46 50" stroke="#991B1B" stroke-width="1.5" fill="none" stroke-linecap="round"/>
  <!-- Wheels -->
  <circle cx="34" cy="96" r="14" fill="#374151"/>
  <circle cx="34" cy="96" r="8" fill="#6B7280"/>
  <circle cx="34" cy="96" r="3" fill="#D1D5DB"/>
  <circle cx="62" cy="96" r="14" fill="#374151"/>
  <circle cx="62" cy="96" r="8" fill="#6B7280"/>
  <circle cx="62" cy="96" r="3" fill="#D1D5DB"/>
  <!-- Counterweight -->
  <rect x="14" y="64" width="10" height="22" rx="3" fill="#DC2626"/>
</svg>
